<?xml version="1.0" encoding="UTF-8"?>
<!-- Created with Grafika (https://www.grafika.cc/) -->
<svg xmlns="http://www.w3.org/2000/svg" xmlns:svg="http://www.w3.org/2000/svg" xmlns:xlink="http://www.w3.org/1999/xlink" width="5321.22" height="5117.75" viewBox="0 0 5321.22 5117.75" preserveAspectRatio="xMidYMid meet">
	<path d="M0.24,561.48 C-2.24,993.42 216.02,1211.66 655,1216.24 L1862.57,1216.24 C1864.04,748.86 1944.31,366.97 1266.15,12.59 C1254.34,6.87 1255.41,7.07 1237.97,0 L1229.27,0 L1.2,0 C0,207.56 1.2,394.14 0.24,561.48 Z" fill-rule="evenodd" style="fill:#FFFFFF;" />
	<path d="M3234.74,395.52 L3234.74,395.52 C3234.74,445.1 3236.12,703.72 3236.76,870.34 C3236.76,1057.64 3380.3,1213.46 3664.7,1213.46 L4762.56,1206.38 C5104.54,1204.22 5321.22,1047.12 5321.22,735.64 L5319.5,0 C4641.53,0 4115.36,0.08 3720.9,0.08 C3430.3,0.08 3234.72,190.52 3234.74,395.52 ZM3725.86,2970.78 L3725.86,2970.78 C3725.86,3282.74 3978.74,3535.62 4290.7,3535.62 C4602.66,3535.62 4855.54,3282.74 4855.54,2970.78 C4855.54,2658.82 4602.66,2405.94 4290.7,2405.94 C3978.74,2405.94 3725.86,2658.82 3725.86,2970.78 Z" fill-rule="evenodd" style="fill:#FFFFFF;" />
	<path d="M1486.9,0.08 L1486.9,0.08 C2171.1,357.62 2083.3,743.16 2083.3,1216.24 L2083.3,3535.62 L3234.46,3535.62 L3234.46,1975.98 C3238.52,794.58 1899.7,-1.54 1486.9,0.08 Z" fill-rule="evenodd" style="fill:#FFFFFF;" />
	<path transform="matrix(16.293270111083984, 0, 0, 16.23736572265625, 2599.59130859375, 4641.998046875)" d="M-159.55,29.3 L-159.55,-33.12 C-159.55,-38.17 -156.73,-40.7 -151.11,-40.7 L-143.34,-40.7 L-143.34,21.94 C-143.34,26.85 -145.84,29.3 -150.84,29.3 L-159.55,29.3 L-159.55,29.3 ZM-112.25,-27.51 L-112.25,29.3 L-96.06,29.3 C-96.06,8.8 -96.06,-7.61 -96.06,-27.51 L-83.77,-27.51 C-77.02,-27.51 -73.65,-29.59 -73.65,-33.74 L-73.65,-40.7 L-81.84,-40.7 L-127.84,-40.7 C-132.39,-40.7 -134.66,-38.35 -134.66,-33.65 L-134.66,-27.51 L-123.27,-27.51 L-112.25,-27.51 L-112.25,-27.51 ZM-64.95,-32.98 L-64.95,21.3 L-64.95,29.3 L-56.54,29.3 L-48.74,29.3 L-48.74,21.72 L-48.74,0.59 L-16.95,0.59 L-16.95,22.38 L-16.95,29.3 L-8.72,29.3 C-3.4,29.3 -0.74,27.19 -0.74,22.97 L-0.74,-34.78 L-0.74,-40.7 L-9.05,-40.7 L-16.95,-40.7 L-16.95,-33.88 L-16.95,-13.11 L-48.74,-13.11 L-48.74,-32.58 L-48.74,-40.7 L-56.21,-40.7 C-62.04,-40.7 -64.95,-38.12 -64.95,-32.98 L-64.95,-32.98 ZM15.85,29.3 L15.85,20.15 L15.85,-33.18 C15.85,-38.19 18.78,-40.7 24.65,-40.7 L32.06,-40.7 L32.06,-33.35 L32.06,19.59 C32.06,26.06 29.11,29.3 23.19,29.3 L15.85,29.3 L15.85,29.3 ZM48.65,-40.7 L48.65,29.3 L102.85,29.3 L102.85,23.61 C102.85,18.75 100.19,16.31 94.86,16.31 L64.74,16.31 L64.74,0.1 L97.26,0.1 L97.26,-12.5 L64.74,-12.5 L64.74,-27.71 L93.35,-27.71 C98.82,-27.71 101.56,-29.68 101.56,-33.63 L101.56,-40.7 L48.65,-40.7 L48.65,-40.7 ZM115.75,-40.7 L115.75,29.3 L167.04,29.3 L167.04,22.1 C167.04,18.09 165.22,16.09 161.56,16.09 L152.73,16.09 L131.96,16.09 L131.96,-33.78 C131.96,-38.39 128.76,-40.7 122.35,-40.7 L115.75,-40.7 L115.75,-40.7 Z" style="fill:#FFFFFF;" />
</svg>