<?xml version="1.0" encoding="UTF-8"?>
<!-- Created with Grafika (https://www.grafika.cc/) -->
<svg xmlns="http://www.w3.org/2000/svg" xmlns:svg="http://www.w3.org/2000/svg" xmlns:xlink="http://www.w3.org/1999/xlink" width="5321" height="3535.62" viewBox="0 0 5321 3535.62" preserveAspectRatio="xMidYMid meet">
	<path d="M0.02,561.48 C-2.46,993.42 215.8,1211.66 654.78,1216.24 L1862.35,1216.24 C1863.82,748.86 1944.09,366.97 1265.93,12.59 C1254.12,6.87 1255.19,7.07 1237.75,0 L1229.05,0 L0.98,0 C-0.22,207.56 0.98,394.14 0.02,561.48 Z" fill-rule="evenodd" style="fill:#FFFFFF;" />
	<path d="M3234.52,395.52 L3234.52,395.52 C3234.52,445.1 3235.9,703.72 3236.54,870.34 C3236.54,1057.64 3380.08,1213.46 3664.48,1213.46 L4762.34,1206.38 C5104.32,1204.22 5321,1047.12 5321,735.64 L5319.28,0 C4641.31,0 4115.14,0.08 3720.68,0.08 C3430.08,0.08 3234.5,190.52 3234.52,395.52 ZM3725.64,2970.78 L3725.64,2970.78 C3725.64,3282.74 3978.52,3535.62 4290.48,3535.62 C4602.44,3535.62 4855.32,3282.74 4855.32,2970.78 C4855.32,2658.82 4602.44,2405.94 4290.48,2405.94 C3978.52,2405.94 3725.64,2658.82 3725.64,2970.78 Z" fill-rule="evenodd" style="fill:#FFFFFF;" />
	<path d="M1486.68,0.08 L1486.68,0.08 C2170.88,357.62 2083.08,743.16 2083.08,1216.24 L2083.08,3535.62 L3234.24,3535.62 L3234.24,1975.98 C3238.3,794.58 1899.48,-1.54 1486.68,0.08 Z" fill-rule="evenodd" style="fill:#FFFFFF;" />
</svg>